<?xml version="1.0" encoding="UTF-8"?>
<svg width="81px" height="81px" viewBox="0 0 81 81" version="1.1" xmlns="http://www.w3.org/2000/svg" xmlns:xlink="http://www.w3.org/1999/xlink">
    <!-- Generator: Sketch 53.2 (72643) - https://sketchapp.com -->
    <title>ppc</title>
    <desc>Created with Sketch.</desc>
    <defs>
        <linearGradient x1="118.169342%" y1="137.338867%" x2="-9.77792594%" y2="-25.6298828%" id="linearGradient-1">
            <stop stop-color="#E7D1FF" offset="0%"></stop>
            <stop stop-color="#8383EF" offset="100%"></stop>
        </linearGradient>
        <filter x="-177.3%" y="-100.0%" width="454.5%" height="300.0%" filterUnits="objectBoundingBox" id="filter-2">
            <feOffset dx="0" dy="0" in="SourceAlpha" result="shadowOffsetOuter1"></feOffset>
            <feGaussianBlur stdDeviation="10" in="shadowOffsetOuter1" result="shadowBlurOuter1"></feGaussianBlur>
            <feColorMatrix values="0 0 0 0 0   0 0 0 0 0   0 0 0 0 0  0 0 0 0.15 0" type="matrix" in="shadowBlurOuter1" result="shadowMatrixOuter1"></feColorMatrix>
            <feMerge>
                <feMergeNode in="shadowMatrixOuter1"></feMergeNode>
                <feMergeNode in="SourceGraphic"></feMergeNode>
            </feMerge>
        </filter>
    </defs>
    <g id="Page-1" stroke="none" stroke-width="1" fill="none" fill-rule="evenodd">
        <g id="home-redesign" transform="translate(-603.000000, -881.000000)">
            <g id="Group-10">
                <g id="What-we-do" transform="translate(70.000000, 638.000000)">
                    <g id="pay-per-click" transform="translate(424.000000, 244.000000)">
                        <g id="ppc" transform="translate(109.635762, 0.000000)">
                            <ellipse id="Oval" fill="url(#linearGradient-1)" cx="39.8675497" cy="40" rx="39.8675497" ry="40"></ellipse>
                            <g id="pay-per-click" filter="url(#filter-2)" transform="translate(29.364238, 18.000000)" fill-rule="nonzero">
                                <path d="M6.03918901,14.8823529 C4.84851497,14.8836336 3.88363358,15.848515 3.88235294,17.039189 L3.88235294,21.3529412 L10.3529412,21.3529412 L10.3529412,14.8823529 L6.03918901,14.8823529 Z" id="Path" fill="#6F5EC8"></path>
                                <path d="M4.52941176,32.4935993 C4.53334492,35.9878159 7.26870633,38.8194578 10.6441139,38.8235294 L12.002945,38.8235294 C15.3783525,38.8194578 18.1137139,35.9878159 18.1176471,32.4935993 L18.1176471,22.6470588 L4.52941176,22.6470588 L4.52941176,32.4935993 Z" id="Path" fill="#6F5EC8"></path>
                                <path d="M16.321076,4.48044635 C13.224595,1.95749828 8.77554451,1.95749828 5.67898542,4.48044635 C2.58242633,7.00339442 1.69439542,11.3520782 3.5546563,14.8823529 C4.21256391,14.182027 5.13134035,13.7840314 6.09342585,13.7825525 L12.2098363,13.7825525 C12.3351594,13.5706721 12.4014106,13.3292905 12.4018788,13.0833941 C12.4010985,12.3113776 11.7739364,11.685778 10.9999917,11.6849996 L10.2990872,11.6849996 C8.75065155,11.6849996 7.49531296,10.4328664 7.49531296,8.88821068 C7.49531296,7.34355495 8.75057352,6.0914217 10.2990872,6.0914217 L10.2990872,5.39226338 C10.2990872,5.00609945 10.6129413,4.69310506 10.9999917,4.69310506 C11.3871201,4.69310506 11.7008962,5.00617729 11.7008962,5.39226338 L11.7008962,6.0914217 L12.4018008,6.0914217 C12.7889292,6.0914217 13.1027053,6.40449393 13.1027053,6.79058003 C13.1027053,7.17666612 12.7888512,7.48973835 12.4018008,7.48973835 L10.2990091,7.48973835 C9.52475231,7.48973835 8.89712203,8.11580497 8.89712203,8.88813284 C8.89712203,9.6604607 9.52475231,10.2865273 10.2990091,10.2865273 L10.9999137,10.2865273 C11.870699,10.2744621 12.6963024,10.6722242 13.2281845,11.3600179 C13.7600667,12.0478894 13.9361122,12.9453839 13.7032577,13.7824746 L15.9064795,13.7824746 C16.8686431,13.7839536 17.7874195,14.1819492 18.4452491,14.8822751 C20.305666,11.3520782 19.4175571,7.00339442 16.321076,4.48044635 Z" id="Path" fill="#FFFFFF"></path>
                                <path d="M18.6139709,3.03455219 C14.3583948,-1.0115174 7.64159392,-1.0115174 3.38601784,3.03455219 C-0.869558239,7.08062177 -1.15006914,13.7335514 2.75006558,18.1176471 L2.75006558,17.0629754 C2.75488746,16.7323093 2.80892312,16.404147 2.91041219,16.0891113 C0.315016697,12.0979757 1.07503667,6.82226515 4.69358896,3.71090782 C8.31214125,0.599550498 13.687924,0.599550498 17.3064763,3.71090782 C20.9250286,6.82226515 21.6850486,12.0979757 19.0896531,16.0891113 C19.1911421,16.404147 19.2451778,16.7323093 19.2499997,17.0629754 L19.2499997,18.1176471 C23.1500579,13.7335514 22.869547,7.08062177 18.6139709,3.03455219 Z" id="Path" fill="#FFFFFF"></path>
                                <path d="M15.960811,14.8823529 L11.6470588,14.8823529 L11.6470588,21.3529412 L18.1176471,21.3529412 L18.1176471,17.039189 C18.1164465,15.848595 17.151485,14.8836336 15.960811,14.8823529 Z" id="Path" fill="#6F5EC8"></path>
                            </g>
                        </g>
                    </g>
                </g>
            </g>
        </g>
    </g>
</svg>